<svg xmlns="http://www.w3.org/2000/svg" viewBox="0 0 64 64"><defs><style>.cls-1{fill:#999;}.cls-2{fill:#16020b;}.cls-3{fill:#e64a19;}.cls-4{fill:#7c4dff;}.cls-5{fill:#66bb6a;}.cls-6{fill:#ff7043;}.cls-7{fill:#29b6f6;}.cls-8{fill:#ff41c8;}</style></defs><g id="赤茶柴犬"><path class="cls-1" d="M29,32.89A3.89,3.89,0,0,1,32.89,29H60.13A3.89,3.89,0,0,1,64,32.89V60.13A3.9,3.9,0,0,1,60.13,64H32.89A3.89,3.89,0,0,1,29,60.13Z"/><rect class="cls-2" x="32" y="32" width="29" height="29"/><path class="cls-3" d="M47.05,42.55H42.16a4.28,4.28,0,0,1-4.28-4.29h0A4.28,4.28,0,0,1,42.16,34h4.89Z"/><path class="cls-4" d="M46.44,51.11H42.16a4.28,4.28,0,0,1-4.28-4.28h0a4.27,4.27,0,0,1,4.28-4.28h4.28Z"/><path class="cls-5" d="M42.16,59.67h0a4.28,4.28,0,0,1-4.28-4.28h0a4.27,4.27,0,0,1,4.28-4.28h4.28v4.28A4.28,4.28,0,0,1,42.16,59.67Z"/><path class="cls-6" d="M50.72,42.55H46.44V34h4.28A4.28,4.28,0,0,1,55,38.26h0A4.29,4.29,0,0,1,50.72,42.55Z"/><circle class="cls-7" cx="50.72" cy="46.83" r="4.28"/><path class="cls-8" d="M0,3.89A3.89,3.89,0,0,1,3.89,0H31.13A3.89,3.89,0,0,1,35,3.89V31.13A3.9,3.9,0,0,1,31.13,35H3.89A3.89,3.89,0,0,1,0,31.13Z"/><path class="cls-2" d="M2.92,2.92V32.1H32.1V2.92Zm9.82,12.35,1.86-4.75h3.2l-3.25,6.86,3.32,7H14.64l-1.9-4.84-1.89,4.84H7.61l3.32-7L7.67,10.52h3.2Zm5.81,3.63a6.73,6.73,0,0,1,.85-3.78,2.83,2.83,0,0,1,2.49-1.24,2.4,2.4,0,0,1,2,1V9.76h2.7V24.35H24.13L24,23.3a2.47,2.47,0,0,1-2.13,1.24,2.79,2.79,0,0,1-2.46-1.24,6.42,6.42,0,0,1-.87-3.62V18.9Zm2.7.67a4.83,4.83,0,0,0,.32,2.12,1.15,1.15,0,0,0,1.09.61,1.31,1.31,0,0,0,1.21-.72V16.89a1.29,1.29,0,0,0-1.2-.76,1.16,1.16,0,0,0-1.08.6,4.65,4.65,0,0,0-.34,2.13Z"/></g></svg>