<svg xmlns="http://www.w3.org/2000/svg" viewBox="0 0 64 64"><defs><style>.cls-1{fill:#03a9f4;}.cls-2{fill:#020f16;}.cls-3{fill:#ff5722;}.cls-4{fill:#1c0802;}</style></defs><g id="赤茶柴犬"><path class="cls-1" d="M29.14,32.87A3.87,3.87,0,0,1,33,29H60.07a3.87,3.87,0,0,1,3.87,3.87V59.93a3.87,3.87,0,0,1-3.87,3.87H33a3.87,3.87,0,0,1-3.87-3.87Z"/><path class="cls-2" d="M42.69,41.73H40.75V46h1.91a1.5,1.5,0,0,0,1.23-.52A2.29,2.29,0,0,0,44.32,44a2.77,2.77,0,0,0-.44-1.64A1.47,1.47,0,0,0,42.69,41.73Z"/><path class="cls-2" d="M32,31.9v29H61v-29ZM45.92,47.16a4.53,4.53,0,0,1-3.32,1.17H40.75v4.84H38V39.42h4.68a4.27,4.27,0,0,1,3.25,1.27A4.52,4.52,0,0,1,47.12,44,4.24,4.24,0,0,1,45.92,47.16Zm9,5.36a4.13,4.13,0,0,1-2.7.83,4.31,4.31,0,0,1-2-.43,3.49,3.49,0,0,1-1.35-1.23A3.16,3.16,0,0,1,48.42,50H51a1.62,1.62,0,0,0,.32,1,1.3,1.3,0,0,0,1,.35c.71,0,1.07-.32,1.07-1A.85.85,0,0,0,53,49.8,6.68,6.68,0,0,0,51.59,49a5.91,5.91,0,0,1-2.27-1.39,2.64,2.64,0,0,1-.62-1.78,2.83,2.83,0,0,1,1-2.21,3.64,3.64,0,0,1,2.56-.88,4,4,0,0,1,2.69.87,2.93,2.93,0,0,1,1,2.33H53.26c0-.83-.35-1.24-1-1.24a1,1,0,0,0-.7.26,1,1,0,0,0-.27.74.8.8,0,0,0,.3.6,6.77,6.77,0,0,0,1.43.74,5.86,5.86,0,0,1,2.3,1.34A2.76,2.76,0,0,1,56,50.32,2.66,2.66,0,0,1,54.93,52.52Z"/><path class="cls-3" d="M0,3.89A3.89,3.89,0,0,1,3.89,0H31.11A3.89,3.89,0,0,1,35,3.89V31.11A3.89,3.89,0,0,1,31.11,35H3.89A3.89,3.89,0,0,1,0,31.11Z"/><path class="cls-4" d="M2.92,2.92V32.08H32.08V2.92ZM17.2,24.31l-.74-2.83H12.65l-.74,2.83H9l4.32-13.83h2.55l4.35,13.83Zm7,0h-2.7V14h2.7ZM23.87,12.4a1.42,1.42,0,0,1-1.07.41,1.44,1.44,0,0,1-1.07-.41,1.42,1.42,0,0,1-.39-1,1.36,1.36,0,0,1,.4-1A1.41,1.41,0,0,1,22.8,10a1.45,1.45,0,0,1,1.07.4,1.4,1.4,0,0,1,.39,1A1.42,1.42,0,0,1,23.87,12.4Z"/><path class="cls-4" d="M13.26,19.15h2.58l-1.29-4.93Z"/></g></svg>