<svg xmlns="http://www.w3.org/2000/svg" xmlns:xlink="http://www.w3.org/1999/xlink" viewBox="0 0 64 64"><defs><style>.cls-1{fill:url(#名称未設定グラデーション_2);}</style><linearGradient id="名称未設定グラデーション_2" x1="32" y1="338" x2="32" y2="402" gradientTransform="matrix(1, 0, 0, -1, 0, 402)" gradientUnits="userSpaceOnUse"><stop offset="0" stop-color="#fff100"/><stop offset="0.08" stop-color="#fdd000"/><stop offset="0.17" stop-color="#f6a900"/><stop offset="0.26" stop-color="#f08400"/><stop offset="0.35" stop-color="#ec6300"/><stop offset="0.44" stop-color="#e94609"/><stop offset="0.53" stop-color="#e72b0f"/><stop offset="0.62" stop-color="#e60f11"/><stop offset="0.7" stop-color="#e60012"/></linearGradient></defs><g id="赤茶柴犬"><path class="cls-1" d="M28.39,36.14c2.72,7.21,9.66,5.59,11.88,13.88,1.06,4-.84,9.92-6.88,13.44C50.14,61.57,53.5,47.8,53.5,41.05c0-9.09-2.57-18.43-12.89-28.44,5.8,15.84,3.22,20.23-.65,20.23-2.57,0-4.83-4.1-3.54-10.85S37.06,4.4,23.53,0c3.86,4.4,5.15,10.56,1.93,19.06S10.5,30,10.5,43.17C10.5,56.7,18,61.36,25.07,64c-5.65-7.84-5.85-13.43-.7-18.66-1.19,5.41,2.68,11.06,5.16,10.09,2.77-1.08,2.57-4.32-.46-7.62C26.75,45.27,26.12,40.9,28.39,36.14Z"/></g></svg>