<svg xmlns="http://www.w3.org/2000/svg" viewBox="0 0 64 64"><defs><style>.cls-1{fill:#fff;}</style></defs><g id="赤茶柴犬"><path class="cls-1" d="M21.41,29.74a2.7,2.7,0,0,0-2.85-2.45c-2.19,0-3.47,1.73-3.47,4.7s1.33,4.72,3.56,4.72A2.84,2.84,0,0,0,21,35.57,3,3,0,0,0,21.55,34l3.75.56a6.8,6.8,0,0,1-1.5,3.3,6.43,6.43,0,0,1-5,2,7.29,7.29,0,0,1-5.33-2A8.31,8.31,0,0,1,11.34,32a8.12,8.12,0,0,1,2.18-5.92,7.3,7.3,0,0,1,5.17-1.88A6.29,6.29,0,0,1,24,26.55,5.62,5.62,0,0,1,25.12,29Z"/><path class="cls-1" d="M30.3,34.62A2.35,2.35,0,0,0,30.77,36a2.61,2.61,0,0,0,2.1.85c1.39,0,2.22-.61,2.22-1.62a1.35,1.35,0,0,0-.76-1.26,14.37,14.37,0,0,0-2.7-.74,7,7,0,0,1-2.9-1A4,4,0,0,1,27,28.68c0-2.78,2.23-4.52,5.78-4.52,2.28,0,4,.7,5,2.05a5,5,0,0,1,.9,2.16l-3.82.42c-.21-1.17-.86-1.66-2.23-1.66-1.1,0-1.91.59-1.91,1.42a1.23,1.23,0,0,0,.85,1.15,9.87,9.87,0,0,0,2.48.6,8.74,8.74,0,0,1,2.92,1A4,4,0,0,1,38.9,35a4.53,4.53,0,0,1-1.25,3.31,6.6,6.6,0,0,1-4.74,1.53,8.57,8.57,0,0,1-4-.88A4.28,4.28,0,0,1,27,36.65a6.77,6.77,0,0,1-.4-1.67Z"/><path class="cls-1" d="M44.05,34.62A2.35,2.35,0,0,0,44.52,36a2.63,2.63,0,0,0,2.11.85c1.38,0,2.21-.61,2.21-1.62a1.35,1.35,0,0,0-.76-1.26,13.82,13.82,0,0,0-2.7-.74,7,7,0,0,1-2.9-1,4,4,0,0,1-1.74-3.45c0-2.78,2.23-4.52,5.78-4.52,2.28,0,4,.7,5,2.05a5,5,0,0,1,.9,2.16l-3.81.42c-.22-1.17-.87-1.66-2.24-1.66-1.1,0-1.91.59-1.91,1.42a1.23,1.23,0,0,0,.85,1.15,9.88,9.88,0,0,0,2.49.6,8.76,8.76,0,0,1,2.91,1A4,4,0,0,1,52.66,35a4.49,4.49,0,0,1-1.26,3.31,6.6,6.6,0,0,1-4.74,1.53,8.5,8.5,0,0,1-4-.88,4.29,4.29,0,0,1-1.95-2.31A6.41,6.41,0,0,1,40.31,35Z"/><rect class="cls-1" width="64" height="21"/><rect class="cls-1" y="43" width="64" height="21"/></g></svg>