<svg xmlns="http://www.w3.org/2000/svg" viewBox="0 0 64 64"><defs><style>.cls-1{fill:#fff;}</style></defs><g id="赤茶柴犬"><path class="cls-1" d="M15.87,24.51a16.68,16.68,0,0,0-.15,2.66v9.66a18.66,18.66,0,0,0,.15,2.66H12a17,17,0,0,0,.15-2.66v-3.5H6.07v3.5a19.74,19.74,0,0,0,.14,2.66H2.34a16.68,16.68,0,0,0,.15-2.66V27.17a17.09,17.09,0,0,0-.15-2.66H6.21a20.75,20.75,0,0,0-.14,2.66v3h6.07v-3A16.52,16.52,0,0,0,12,24.51Z"/><path class="cls-1" d="M25.8,36.77a22.08,22.08,0,0,0,.14,2.72H22a19.57,19.57,0,0,0,.15-2.72V27.7H20a23.63,23.63,0,0,0-2.71.12V24.38a22.5,22.5,0,0,0,2.68.13h7.88a23.74,23.74,0,0,0,2.81-.13v3.44a23.42,23.42,0,0,0-2.81-.12h-2Z"/><path class="cls-1" d="M38.58,39.49a14.21,14.21,0,0,0-.77-2.66L36.15,32c0-.09-.56-1.77-.61-1.91-.2-.65-.2-.65-.29-.9.11,1.13.18,2.61.18,3.56V36.7a19.14,19.14,0,0,0,.14,2.79H32a19.53,19.53,0,0,0,.15-2.79V27.32A24.66,24.66,0,0,0,32,24.51h4.76a13.22,13.22,0,0,0,.68,2.54l2.7,7.76,2.69-7.76a12.71,12.71,0,0,0,.66-2.54h4.77a22.33,22.33,0,0,0-.14,2.81V36.7a19.08,19.08,0,0,0,.14,2.79H44.74a19.39,19.39,0,0,0,.14-2.79V32.77c0-.43.06-1.78.09-2.34.05-.95.05-.95.07-1.22-.39,1.4-.57,2.05-.81,2.7l-1.74,4.93a16.49,16.49,0,0,0-.78,2.65Z"/><path class="cls-1" d="M53.19,39.49c-1.24,0-2,0-2.66,0a16,16,0,0,0,.14-2.62V27.41a21.55,21.55,0,0,0-.14-2.9h3.92a18.67,18.67,0,0,0-.14,2.84v8.94h4.36a20.83,20.83,0,0,0,3-.13v3.46a23.34,23.34,0,0,0-3-.13Z"/><rect class="cls-1" width="64" height="21"/><rect class="cls-1" y="43" width="64" height="21"/></g></svg>