<svg xmlns="http://www.w3.org/2000/svg" viewBox="0 0 64 64"><defs><style>.cls-2{fill:#16020b}</style></defs><g id="赤茶柴犬"><path d="M29 32.89A3.89 3.89 0 0132.89 29h27.24A3.89 3.89 0 0164 32.89v27.24A3.9 3.9 0 0160.13 64H32.89A3.89 3.89 0 0129 60.13z" fill="#999"/><path class="cls-2" d="M32 32h29v29H32z"/><path d="M47.05 42.55h-4.89a4.28 4.28 0 01-4.28-4.29A4.28 4.28 0 0142.16 34h4.89z" fill="#e64a19"/><path d="M46.44 51.11h-4.28a4.28 4.28 0 01-4.28-4.28 4.27 4.27 0 014.28-4.28h4.28z" fill="#7c4dff"/><path d="M42.16 59.67a4.28 4.28 0 01-4.28-4.28 4.27 4.27 0 014.28-4.28h4.28v4.28a4.28 4.28 0 01-4.28 4.28z" fill="#66bb6a"/><path d="M50.72 42.55h-4.28V34h4.28A4.28 4.28 0 0155 38.26a4.29 4.29 0 01-4.28 4.29z" fill="#ff7043"/><circle cx="50.72" cy="46.83" r="4.28" fill="#29b6f6"/><path d="M0 3.89A3.89 3.89 0 013.89 0h27.24A3.89 3.89 0 0135 3.89v27.24A3.9 3.9 0 0131.13 35H3.89A3.89 3.89 0 010 31.13z" fill="#ff41c8"/><path class="cls-2" d="M2.92 2.92V32.1H32.1V2.92zm9.82 12.35l1.86-4.75h3.2l-3.25 6.86 3.32 7h-3.23l-1.9-4.84-1.89 4.84H7.61l3.32-7-3.26-6.86h3.2zm5.81 3.63a6.73 6.73 0 01.85-3.78 2.83 2.83 0 012.49-1.24 2.4 2.4 0 012 1V9.76h2.7v14.59h-2.46L24 23.3a2.47 2.47 0 01-2.13 1.24 2.79 2.79 0 01-2.46-1.24 6.42 6.42 0 01-.87-3.62v-.78zm2.7.67a4.83 4.83 0 00.32 2.12 1.15 1.15 0 001.09.61 1.31 1.31 0 001.21-.72v-4.69a1.29 1.29 0 00-1.2-.76 1.16 1.16 0 00-1.08.6 4.65 4.65 0 00-.34 2.13z"/></g></svg>