<svg xmlns="http://www.w3.org/2000/svg" viewBox="0 0 64 64"><path d="M21.41 29.74a2.7 2.7 0 00-2.85-2.45c-2.19 0-3.47 1.73-3.47 4.7s1.33 4.72 3.56 4.72A2.84 2.84 0 0021 35.57a3 3 0 00.55-1.57l3.75.56a6.8 6.8 0 01-1.5 3.3 6.43 6.43 0 01-5 2 7.29 7.29 0 01-5.33-2A8.31 8.31 0 0111.34 32a8.12 8.12 0 012.18-5.92 7.3 7.3 0 015.17-1.88A6.29 6.29 0 0124 26.55 5.62 5.62 0 0125.12 29zm8.89 4.88a2.35 2.35 0 00.47 1.38 2.61 2.61 0 002.1.85c1.39 0 2.22-.61 2.22-1.62a1.35 1.35 0 00-.76-1.26 14.37 14.37 0 00-2.7-.74 7 7 0 01-2.9-1A4 4 0 0127 28.68c0-2.78 2.23-4.52 5.78-4.52 2.28 0 4 .7 5 2.05a5 5 0 01.9 2.16l-3.82.42c-.21-1.17-.86-1.66-2.23-1.66-1.1 0-1.91.59-1.91 1.42a1.23 1.23 0 00.85 1.15 9.87 9.87 0 002.48.6 8.74 8.74 0 012.92 1A4 4 0 0138.9 35a4.53 4.53 0 01-1.25 3.31 6.6 6.6 0 01-4.74 1.53 8.57 8.57 0 01-4-.88A4.28 4.28 0 0127 36.65a6.77 6.77 0 01-.4-1.67zm13.75 0a2.35 2.35 0 00.47 1.38 2.63 2.63 0 002.11.85c1.38 0 2.21-.61 2.21-1.62a1.35 1.35 0 00-.76-1.26 13.82 13.82 0 00-2.7-.74 7 7 0 01-2.9-1 4 4 0 01-1.74-3.45c0-2.78 2.23-4.52 5.78-4.52 2.28 0 4 .7 5 2.05a5 5 0 01.9 2.16l-3.81.42c-.22-1.17-.87-1.66-2.24-1.66-1.1 0-1.91.59-1.91 1.42a1.23 1.23 0 00.85 1.15 9.88 9.88 0 002.49.6 8.76 8.76 0 012.91 1 4 4 0 011.95 3.6 4.49 4.49 0 01-1.26 3.31 6.6 6.6 0 01-4.74 1.53 8.5 8.5 0 01-4-.88 4.29 4.29 0 01-1.95-2.31 6.41 6.41 0 01-.4-1.65zM0 0h64v21H0zm0 43h64v21H0z" fill="#fff"/></svg>