<svg xmlns="http://www.w3.org/2000/svg" viewBox="0 0 64 64"><path d="M32 14.67c-8.66 0-16.51 1.81-22.3 4.84S0 26.89 0 32s3.9 9.47 9.7 12.49 13.64 4.84 22.3 4.84 16.51-1.81 22.3-4.84S64 37.11 64 32s-3.9-9.47-9.7-12.49-13.64-4.84-22.3-4.84zm0 2.66c8.28 0 15.77 1.77 21.07 4.54s8.26 6.4 8.26 10.13-3 7.36-8.26 10.13S40.28 46.67 32 46.67s-15.77-1.77-21.07-4.54S2.67 35.73 2.67 32s3-7.36 8.26-10.13S23.72 17.33 32 17.33zM28.68 20l-3.35 16h3.5l1.69-8h2.8a2.52 2.52 0 011.76.44 2 2 0 01.17 1.67L34 36h3.56l1.38-6.37c.3-1.53.07-2.65-.67-3.33s-2.08-1-4.06-1h-3.15l1.11-5.3zm-15.35 5.33L10.63 40h3.53l.7-4h2.2c4.59 0 7.09-1.06 8-5 .81-3.39-1.25-5.66-4.64-5.66zm28 0L38.63 40h3.53l.7-4h2.2c4.59 0 7.09-1.06 8-5 .81-3.39-1.25-5.66-4.64-5.66zM16.36 28h2.75c2.28 0 2.76 1 2.64 2.17-.31 2.94-2.14 3.16-4.11 3.16h-2.29zm28 0h2.75c2.28 0 2.76 1 2.64 2.17-.31 2.94-2.14 3.16-4.11 3.16h-2.29z" fill="#fff"/></svg>