<svg xmlns="http://www.w3.org/2000/svg" viewBox="0 0 64 64"><defs><style>.cls-2{fill:#01579b}</style></defs><g id="赤茶柴犬"><path d="M32.11.3a31.81 31.81 0 000 63.62A31.81 31.81 0 1032.12.3z" fill="#fff"/><path class="cls-2" d="M6.6 32.11A25.5 25.5 0 0021 55.07L8.8 21.72a25.52 25.52 0 00-2.2 10.39zm42.74-1.29c0-3.15-1.7-5.34-2.67-7-1.29-2.12-2.51-3.89-2.51-6A4.93 4.93 0 0149 13.28h.33a25.5 25.5 0 00-38 4.07 2.69 2.69 0 001 .06c2.66 0 6.8-.32 6.8-.32a1.05 1.05 0 01.16 2.1s-1.38.17-2.92.24l9.46 28.35L31.35 31 27.2 19.49c-1.37-.08-2.68-.25-2.68-.25a1 1 0 01.16-2.09s4.22.31 6.72.31c2.68 0 6.8-.31 6.8-.31a1 1 0 01.17 2.09s-1.39.17-2.92.25l9.39 28.08 2.55-8.5a23.56 23.56 0 001.95-8.25zm-16.78 3.51L24.9 56.58a25.29 25.29 0 007.21 1 25.89 25.89 0 008.48-1.44 2.47 2.47 0 01-.19-.36zM54.5 19.86a19.55 19.55 0 01.17 2.62 24.24 24.24 0 01-1.94 9.15l-7.79 22.54a25.55 25.55 0 009.56-34.31z"/><path class="cls-2" d="M.22 32.11A31.89 31.89 0 1032.11.22 31.93 31.93 0 00.22 32.11zm3.18 0a28.71 28.71 0 1128.71 28.7A28.73 28.73 0 013.4 32.11z"/></g></svg>