<svg xmlns="http://www.w3.org/2000/svg" viewBox="0 0 64 64"><path d="M.22 63.63V-.15H64v63.78z" fill="#ffd600"/><path d="M41.92 47.59c1.23 2 2.56 3.9 5.38 3.9 2.37 0 3.62-1.18 3.62-2.81 0-2-1.29-2.64-3.9-3.78l-1.43-.61c-4.13-1.75-6.87-3.94-6.87-8.57 0-4.27 3.27-7.52 8.38-7.52 3.63 0 6.25 1.26 8.13 4.56l-4.45 2.84c-1-1.75-2-2.44-3.68-2.44a2.49 2.49 0 00-2.74 2.44c0 1.71 1.06 2.4 3.52 3.46l1.43.61c4.86 2.07 7.6 4.19 7.6 8.94 0 5.13-4 7.93-9.48 7.93a10.45 10.45 0 01-10-6zm-20.53.15a4.85 4.85 0 004.22 2.84c1.88 0 2.95-.74 2.95-3.62V28.2h5.91v19.66c0 6-3.46 8.68-8.51 8.68a10.38 10.38 0 01-9.21-6z" fill="#000001"/></svg>