<svg xmlns="http://www.w3.org/2000/svg" viewBox="0 0 64 64"><defs><style>.cls-2{fill:#020f16}.cls-4{fill:#1c0802}</style></defs><g id="赤茶柴犬"><path d="M29.14 32.87A3.87 3.87 0 0133 29h27.07a3.87 3.87 0 013.87 3.87v27.06a3.87 3.87 0 01-3.87 3.87H33a3.87 3.87 0 01-3.87-3.87z" fill="#03a9f4"/><path class="cls-2" d="M42.69 41.73h-1.94V46h1.91a1.5 1.5 0 001.23-.52 2.29 2.29 0 00.43-1.48 2.77 2.77 0 00-.44-1.64 1.47 1.47 0 00-1.19-.63z"/><path class="cls-2" d="M32 31.9v29h29v-29zm13.92 15.26a4.53 4.53 0 01-3.32 1.17h-1.85v4.84H38V39.42h4.68a4.27 4.27 0 013.25 1.27A4.52 4.52 0 0147.12 44a4.24 4.24 0 01-1.2 3.16zm9 5.36a4.13 4.13 0 01-2.7.83 4.31 4.31 0 01-2-.43 3.49 3.49 0 01-1.35-1.23 3.16 3.16 0 01-.45-1.69H51a1.62 1.62 0 00.32 1 1.3 1.3 0 001 .35c.71 0 1.07-.32 1.07-1a.85.85 0 00-.39-.55 6.68 6.68 0 00-1.41-.8 5.91 5.91 0 01-2.27-1.39 2.64 2.64 0 01-.62-1.78 2.83 2.83 0 011-2.21 3.64 3.64 0 012.56-.88 4 4 0 012.69.87 2.93 2.93 0 011 2.33h-2.69c0-.83-.35-1.24-1-1.24a1 1 0 00-.7.26 1 1 0 00-.27.74.8.8 0 00.3.6 6.77 6.77 0 001.43.74 5.86 5.86 0 012.3 1.34 2.76 2.76 0 01.68 1.94 2.66 2.66 0 01-1.07 2.2z"/><path d="M0 3.89A3.89 3.89 0 013.89 0h27.22A3.89 3.89 0 0135 3.89v27.22A3.89 3.89 0 0131.11 35H3.89A3.89 3.89 0 010 31.11z" fill="#ff5722"/><path class="cls-4" d="M2.92 2.92v29.16h29.16V2.92zM17.2 24.31l-.74-2.83h-3.81l-.74 2.83H9l4.32-13.83h2.55l4.35 13.83zm7 0h-2.7V14h2.7zm-.33-11.91a1.42 1.42 0 01-1.07.41 1.44 1.44 0 01-1.07-.41 1.42 1.42 0 01-.39-1 1.36 1.36 0 01.4-1 1.41 1.41 0 011.06-.4 1.45 1.45 0 011.07.4 1.4 1.4 0 01.39 1 1.42 1.42 0 01-.39 1z"/><path class="cls-4" d="M13.26 19.15h2.58l-1.29-4.93z"/></g></svg>